<svg xmlns="http://www.w3.org/2000/svg" xmlns:xlink="http://www.w3.org/1999/xlink" width="500" zoomAndPan="magnify" viewBox="0 0 375 374.999991" height="500" preserveAspectRatio="xMidYMid meet" version="1.0"><defs><g/><clipPath id="247a884be9"><path d="M 138.140625 71.070312 L 236.851562 71.070312 L 236.851562 221.667969 L 138.140625 221.667969 Z M 138.140625 71.070312 " clip-rule="nonzero"/></clipPath><clipPath id="a7fb62553f"><path d="M 138.5 71.429688 L 174.050781 91.90625 L 174.050781 141.867188 L 149.371094 155.699219 L 149.371094 221.417969 L 138.5 221.417969 Z M 236.492188 155.699219 L 236.492188 221.417969 L 192.929688 221.417969 L 192.929688 135.398438 L 236.492188 160.109375 L 236.492188 155.6875 Z M 213.46875 179.167969 L 200.871094 179.167969 L 200.871094 188.15625 L 213.46875 188.15625 Z M 213.46875 167.796875 L 200.871094 167.796875 L 200.871094 176.757812 L 213.46875 176.757812 Z M 228.601562 179.167969 L 215.949219 179.167969 L 215.949219 188.15625 L 228.609375 188.15625 L 228.609375 179.167969 Z M 228.601562 167.796875 L 215.949219 167.796875 L 215.949219 176.757812 L 228.609375 176.757812 L 228.609375 167.796875 Z M 228.601562 167.796875 " clip-rule="nonzero"/></clipPath><clipPath id="11103b710c"><path d="M 174 133.078125 L 192.980469 133.078125 L 192.980469 188.34375 L 174 188.34375 Z M 174 133.078125 " clip-rule="nonzero"/></clipPath><clipPath id="ad0385e7c4"><path d="M 192.929688 135.398438 L 192.929688 188.15625 L 174.050781 188.15625 L 174.050781 141.867188 L 189.289062 133.328125 L 192.941406 135.378906 L 192.941406 135.398438 Z M 192.929688 135.398438 " clip-rule="nonzero"/></clipPath><clipPath id="d60aff07d1"><path d="M 149.109375 141.515625 L 228.839844 141.515625 L 228.839844 221.667969 L 149.109375 221.667969 Z M 149.109375 141.515625 " clip-rule="nonzero"/></clipPath><clipPath id="b53b1ad5a2"><path d="M 215.949219 167.808594 L 215.949219 176.769531 L 228.609375 176.769531 L 228.609375 167.808594 Z M 200.871094 167.808594 L 200.871094 176.796875 L 213.46875 176.796875 L 213.46875 167.808594 Z M 215.949219 179.179688 L 215.949219 188.136719 L 228.609375 188.136719 L 228.609375 179.179688 Z M 200.871094 179.207031 L 200.871094 188.167969 L 213.46875 188.167969 L 213.46875 179.207031 Z M 174.050781 141.867188 L 149.371094 155.699219 L 149.371094 221.429688 L 174.199219 221.429688 L 174.199219 188.15625 L 174.0625 188.15625 L 174.0625 141.867188 Z M 174.050781 141.867188 " clip-rule="nonzero"/></clipPath><clipPath id="bbbf41a713"><path d="M 174 91.738281 L 236.851562 91.738281 L 236.851562 221.667969 L 174 221.667969 Z M 174 91.738281 " clip-rule="nonzero"/></clipPath><clipPath id="b670049c40"><path d="M 174.050781 91.90625 L 174.050781 141.867188 L 189.289062 133.328125 L 192.941406 135.378906 L 236.5 160.109375 L 236.5 149.867188 L 192.929688 125.136719 L 192.929688 102.796875 Z M 174.191406 188.15625 L 174.191406 221.429688 L 192.929688 221.429688 L 192.929688 188.15625 Z M 174.191406 188.15625 " clip-rule="nonzero"/></clipPath></defs><rect x="-37.5" width="450" fill="#ffffff" y="-37.499999" height="449.999989" fill-opacity="1"/><rect x="-37.5" width="450" fill="#ffffff" y="-37.499999" height="449.999989" fill-opacity="1"/><g clip-path="url(#247a884be9)"><g clip-path="url(#a7fb62553f)"><path fill="#dbae5f" d="M 133.5 66.429688 L 241.492188 66.429688 L 241.492188 226.308594 L 133.5 226.308594 Z M 133.5 66.429688 " fill-opacity="1" fill-rule="nonzero"/></g></g><g clip-path="url(#11103b710c)"><g clip-path="url(#ad0385e7c4)"><path fill="#face7f" d="M 133.5 66.429688 L 241.492188 66.429688 L 241.492188 226.308594 L 133.5 226.308594 Z M 133.5 66.429688 " fill-opacity="1" fill-rule="nonzero"/></g></g><g clip-path="url(#d60aff07d1)"><g clip-path="url(#b53b1ad5a2)"><path fill="#ffffff" d="M 133.5 66.429688 L 241.492188 66.429688 L 241.492188 226.308594 L 133.5 226.308594 Z M 133.5 66.429688 " fill-opacity="1" fill-rule="nonzero"/></g></g><g clip-path="url(#bbbf41a713)"><g clip-path="url(#b670049c40)"><path fill="#323232" d="M 133.5 66.429688 L 241.492188 66.429688 L 241.492188 226.308594 L 133.5 226.308594 Z M 133.5 66.429688 " fill-opacity="1" fill-rule="nonzero"/></g></g><g fill="#323232" fill-opacity="1"><g transform="translate(93.956438, 270.519738)"><g><path d="M 9.484375 0 L 6.5625 0 L 6.5625 -18.421875 C 5.882812 -18.578125 5.207031 -18.65625 4.53125 -18.65625 L 0.484375 -17.734375 L 0.296875 -19.859375 L 15.75 -19.859375 L 15.59375 -17.734375 L 11.515625 -18.65625 C 10.835938 -18.65625 10.160156 -18.578125 9.484375 -18.421875 Z M 9.484375 0 "/></g></g></g><g fill="#323232" fill-opacity="1"><g transform="translate(110.006421, 270.519738)"><g><path d="M 2.703125 0 L 2.703125 -19.859375 L 14.734375 -19.859375 L 14.4375 -17.84375 L 8.84375 -18.78125 C 7.863281 -18.78125 6.785156 -18.609375 5.609375 -18.265625 L 5.609375 -10.984375 L 12.265625 -10.984375 L 12.265625 -9.84375 L 5.609375 -9.84375 L 5.609375 -1.078125 L 14.90625 -2.015625 L 14.609375 0 Z M 2.703125 0 "/></g></g></g><g fill="#323232" fill-opacity="1"><g transform="translate(126.866405, 270.519738)"><g><path d="M 2.703125 0 L 2.703125 -19.859375 L 14.734375 -19.859375 L 14.4375 -17.84375 L 8.84375 -18.78125 C 7.863281 -18.78125 6.785156 -18.609375 5.609375 -18.265625 L 5.609375 -10.984375 L 12.265625 -10.984375 L 12.265625 -9.84375 L 5.609375 -9.84375 L 5.609375 -1.078125 L 14.90625 -2.015625 L 14.609375 0 Z M 2.703125 0 "/></g></g></g><g fill="#323232" fill-opacity="1"><g transform="translate(143.726389, 270.519738)"><g/></g></g><g fill="#323232" fill-opacity="1"><g transform="translate(151.226377, 270.519738)"><g><path d="M 16.046875 -14.703125 C 16.046875 -12.773438 15.335938 -11.316406 13.921875 -10.328125 C 12.515625 -9.335938 10.601562 -8.84375 8.1875 -8.84375 L 5.609375 -8.84375 L 5.609375 0 L 2.703125 0 L 2.703125 -19.859375 L 9.15625 -19.859375 C 11.175781 -19.859375 12.828125 -19.394531 14.109375 -18.46875 C 15.398438 -17.550781 16.046875 -16.296875 16.046875 -14.703125 Z M 5.609375 -9.71875 L 8.28125 -9.71875 C 9.21875 -9.71875 10.019531 -9.894531 10.6875 -10.25 C 11.363281 -10.613281 11.851562 -11.078125 12.15625 -11.640625 C 12.6875 -12.640625 12.953125 -13.609375 12.953125 -14.546875 C 12.953125 -15.003906 12.832031 -15.554688 12.59375 -16.203125 C 12.113281 -17.523438 11.125 -18.382812 9.625 -18.78125 C 8.1875 -18.78125 6.847656 -18.609375 5.609375 -18.265625 Z M 5.609375 -9.71875 "/></g></g></g><g fill="#323232" fill-opacity="1"><g transform="translate(167.606362, 270.519738)"><g><path d="M 5.640625 -9.484375 L 5.640625 0 L 2.703125 0 L 2.703125 -19.859375 L 9.1875 -19.859375 C 11.195312 -19.859375 12.847656 -19.40625 14.140625 -18.5 C 15.429688 -17.601562 16.078125 -16.421875 16.078125 -14.953125 C 16.078125 -13.484375 15.5625 -12.320312 14.53125 -11.46875 C 13.5 -10.625 12.101562 -10.039062 10.34375 -9.71875 L 18.390625 0 L 14.90625 0.421875 L 7.953125 -9.484375 Z M 5.640625 -10.375 L 7.5625 -10.375 C 11.15625 -10.375 12.953125 -11.796875 12.953125 -14.640625 C 12.953125 -15.117188 12.832031 -15.660156 12.59375 -16.265625 C 12.132812 -17.523438 11.15625 -18.351562 9.65625 -18.75 C 8.300781 -18.75 6.960938 -18.578125 5.640625 -18.234375 Z M 5.640625 -10.375 "/></g></g></g><g fill="#323232" fill-opacity="1"><g transform="translate(186.746341, 270.519738)"><g><path d="M 2.703125 0 L 2.703125 -19.859375 L 14.734375 -19.859375 L 14.4375 -17.84375 L 8.84375 -18.78125 C 7.863281 -18.78125 6.785156 -18.609375 5.609375 -18.265625 L 5.609375 -10.984375 L 12.265625 -10.984375 L 12.265625 -9.84375 L 5.609375 -9.84375 L 5.609375 -1.078125 L 14.90625 -2.015625 L 14.609375 0 Z M 2.703125 0 "/></g></g></g><g fill="#323232" fill-opacity="1"><g transform="translate(203.606325, 270.519738)"><g><path d="M 13.296875 -4.703125 L 19.921875 -19.859375 L 22.984375 -19.859375 L 24.09375 0 L 21.03125 0 L 20.21875 -17.0625 L 20.09375 -17.0625 L 12.546875 0 L 12.125 0 L 4.703125 -16.375 L 4.59375 -16.375 L 3.78125 0 L 2.453125 0 L 3.5625 -19.859375 L 6.359375 -19.859375 Z M 13.296875 -4.703125 "/></g></g></g><g fill="#323232" fill-opacity="1"><g transform="translate(230.276299, 270.519738)"><g><path d="M 5.453125 -19.859375 L 5.453125 0 L 2.703125 0 L 2.703125 -19.859375 Z M 5.453125 -19.859375 "/></g></g></g><g fill="#323232" fill-opacity="1"><g transform="translate(238.43629, 270.519738)"><g><path d="M 17.453125 -19.859375 L 17.453125 -7.6875 C 17.453125 -5.820312 17.253906 -4.421875 16.859375 -3.484375 C 16.679688 -3.054688 16.394531 -2.578125 16 -2.046875 C 15.613281 -1.523438 15.160156 -1.101562 14.640625 -0.78125 C 13.316406 -0.0195312 11.664062 0.359375 9.6875 0.359375 C 4.726562 0.359375 2.25 -2.191406 2.25 -7.296875 L 2.25 -19.859375 L 5.3125 -19.859375 L 5.3125 -7.046875 C 5.3125 -6.472656 5.320312 -6.003906 5.34375 -5.640625 C 5.363281 -5.273438 5.46875 -4.765625 5.65625 -4.109375 C 5.84375 -3.453125 6.101562 -2.921875 6.4375 -2.515625 C 6.769531 -2.117188 7.289062 -1.757812 8 -1.4375 C 8.707031 -1.113281 9.550781 -0.953125 10.53125 -0.953125 C 14.269531 -0.953125 16.140625 -2.953125 16.140625 -6.953125 L 16.140625 -19.859375 Z M 17.453125 -19.859375 "/></g></g></g><g fill="#323232" fill-opacity="1"><g transform="translate(258.146265, 270.519738)"><g><path d="M 13.296875 -4.703125 L 19.921875 -19.859375 L 22.984375 -19.859375 L 24.09375 0 L 21.03125 0 L 20.21875 -17.0625 L 20.09375 -17.0625 L 12.546875 0 L 12.125 0 L 4.703125 -16.375 L 4.59375 -16.375 L 3.78125 0 L 2.453125 0 L 3.5625 -19.859375 L 6.359375 -19.859375 Z M 13.296875 -4.703125 "/></g></g></g><g fill="#303030" fill-opacity="1"><g transform="translate(133.542373, 296.019737)"><g><path d="M 6.09375 0 L 5.078125 0 L 5.078125 -3.6875 L 1.859375 -3.6875 L 1.859375 0 L 0.859375 0 L 0.859375 -7.984375 L 1.859375 -7.984375 L 1.859375 -4.546875 L 5.078125 -4.546875 L 5.078125 -7.984375 L 6.09375 -7.984375 Z M 6.09375 0 "/></g></g></g><g fill="#303030" fill-opacity="1"><g transform="translate(141.92039, 296.019737)"><g><path d="M 6.0625 -3.296875 C 6.0625 -2.203125 5.828125 -1.359375 5.359375 -0.765625 C 4.890625 -0.179688 4.226562 0.109375 3.375 0.109375 C 2.550781 0.109375 1.898438 -0.175781 1.421875 -0.75 C 0.953125 -1.320312 0.707031 -2.128906 0.6875 -3.171875 L 0.6875 -4.671875 C 0.6875 -5.742188 0.921875 -6.582031 1.390625 -7.1875 C 1.859375 -7.789062 2.519531 -8.09375 3.375 -8.09375 C 4.207031 -8.09375 4.859375 -7.800781 5.328125 -7.21875 C 5.804688 -6.644531 6.050781 -5.820312 6.0625 -4.75 Z M 5.046875 -4.6875 C 5.046875 -5.53125 4.90625 -6.15625 4.625 -6.5625 C 4.351562 -6.976562 3.9375 -7.1875 3.375 -7.1875 C 2.820312 -7.1875 2.398438 -6.976562 2.109375 -6.5625 C 1.828125 -6.144531 1.6875 -5.53125 1.6875 -4.71875 L 1.6875 -3.296875 C 1.6875 -2.472656 1.828125 -1.847656 2.109375 -1.421875 C 2.390625 -0.992188 2.8125 -0.78125 3.375 -0.78125 C 3.9375 -0.78125 4.351562 -0.976562 4.625 -1.375 C 4.894531 -1.769531 5.035156 -2.375 5.046875 -3.1875 Z M 5.046875 -4.6875 "/></g></g></g><g fill="#303030" fill-opacity="1"><g transform="translate(150.079139, 296.019737)"><g><path d="M 2.15625 -7.984375 L 4.234375 -1.46875 L 6.328125 -7.984375 L 7.625 -7.984375 L 7.625 0 L 6.609375 0 L 6.609375 -3.109375 L 6.703125 -6.21875 L 4.625 0 L 3.84375 0 L 1.765625 -6.203125 L 1.859375 -3.109375 L 1.859375 0 L 0.859375 0 L 0.859375 -7.984375 Z M 2.15625 -7.984375 "/></g></g></g><g fill="#303030" fill-opacity="1"><g transform="translate(159.975591, 296.019737)"><g><path d="M 4.6875 -3.6875 L 1.859375 -3.6875 L 1.859375 -0.859375 L 5.15625 -0.859375 L 5.15625 0 L 0.859375 0 L 0.859375 -7.984375 L 5.09375 -7.984375 L 5.09375 -7.125 L 1.859375 -7.125 L 1.859375 -4.546875 L 4.6875 -4.546875 Z M 4.6875 -3.6875 "/></g></g></g><g fill="#303030" fill-opacity="1"><g transform="translate(166.966735, 296.019737)"><g><path d="M 4.34375 -2.015625 C 4.34375 -2.410156 4.234375 -2.710938 4.015625 -2.921875 C 3.804688 -3.140625 3.421875 -3.347656 2.859375 -3.546875 C 2.296875 -3.753906 1.863281 -3.96875 1.5625 -4.1875 C 1.269531 -4.40625 1.046875 -4.65625 0.890625 -4.9375 C 0.742188 -5.226562 0.671875 -5.554688 0.671875 -5.921875 C 0.671875 -6.554688 0.878906 -7.078125 1.296875 -7.484375 C 1.722656 -7.890625 2.28125 -8.09375 2.96875 -8.09375 C 3.4375 -8.09375 3.851562 -7.988281 4.21875 -7.78125 C 4.582031 -7.570312 4.863281 -7.28125 5.0625 -6.90625 C 5.257812 -6.53125 5.359375 -6.117188 5.359375 -5.671875 L 4.34375 -5.671875 C 4.34375 -6.171875 4.222656 -6.554688 3.984375 -6.828125 C 3.753906 -7.097656 3.414062 -7.234375 2.96875 -7.234375 C 2.5625 -7.234375 2.242188 -7.117188 2.015625 -6.890625 C 1.796875 -6.660156 1.6875 -6.34375 1.6875 -5.9375 C 1.6875 -5.601562 1.804688 -5.320312 2.046875 -5.09375 C 2.285156 -4.863281 2.660156 -4.660156 3.171875 -4.484375 C 3.953125 -4.222656 4.507812 -3.898438 4.84375 -3.515625 C 5.1875 -3.140625 5.359375 -2.644531 5.359375 -2.03125 C 5.359375 -1.382812 5.148438 -0.863281 4.734375 -0.46875 C 4.316406 -0.0820312 3.742188 0.109375 3.015625 0.109375 C 2.554688 0.109375 2.128906 0.0078125 1.734375 -0.1875 C 1.335938 -0.394531 1.023438 -0.679688 0.796875 -1.046875 C 0.578125 -1.421875 0.46875 -1.84375 0.46875 -2.3125 L 1.46875 -2.3125 C 1.46875 -1.820312 1.601562 -1.4375 1.875 -1.15625 C 2.15625 -0.882812 2.535156 -0.75 3.015625 -0.75 C 3.460938 -0.75 3.796875 -0.863281 4.015625 -1.09375 C 4.234375 -1.320312 4.34375 -1.628906 4.34375 -2.015625 Z M 4.34375 -2.015625 "/></g></g></g><g fill="#303030" fill-opacity="1"><g transform="translate(174.199074, 296.019737)"><g/></g></g><g fill="#303030" fill-opacity="1"><g transform="translate(178.186236, 296.019737)"><g><path d="M 0.5625 -2.140625 C 0.5625 -2.515625 0.648438 -2.863281 0.828125 -3.1875 C 1.015625 -3.507812 1.363281 -3.882812 1.875 -4.3125 C 1.570312 -4.726562 1.363281 -5.070312 1.25 -5.34375 C 1.144531 -5.613281 1.09375 -5.882812 1.09375 -6.15625 C 1.09375 -6.769531 1.25 -7.242188 1.5625 -7.578125 C 1.875 -7.921875 2.289062 -8.09375 2.8125 -8.09375 C 3.300781 -8.09375 3.695312 -7.929688 4 -7.609375 C 4.3125 -7.285156 4.46875 -6.882812 4.46875 -6.40625 C 4.46875 -6.09375 4.40625 -5.800781 4.28125 -5.53125 C 4.164062 -5.269531 3.945312 -5 3.625 -4.71875 L 3.0625 -4.234375 L 4.46875 -2.21875 C 4.644531 -2.65625 4.734375 -3.144531 4.734375 -3.6875 L 5.59375 -3.6875 C 5.59375 -2.757812 5.40625 -2 5.03125 -1.40625 L 6.015625 0 L 4.84375 0 L 4.4375 -0.59375 C 4.226562 -0.375 3.972656 -0.203125 3.671875 -0.078125 C 3.378906 0.046875 3.078125 0.109375 2.765625 0.109375 C 2.097656 0.109375 1.5625 -0.0976562 1.15625 -0.515625 C 0.757812 -0.929688 0.5625 -1.472656 0.5625 -2.140625 Z M 2.765625 -0.71875 C 3.191406 -0.71875 3.582031 -0.921875 3.9375 -1.328125 L 2.359375 -3.625 L 2.1875 -3.5 C 1.75 -3.070312 1.53125 -2.617188 1.53125 -2.140625 C 1.53125 -1.722656 1.640625 -1.378906 1.859375 -1.109375 C 2.078125 -0.847656 2.378906 -0.71875 2.765625 -0.71875 Z M 2.0625 -6.1875 C 2.0625 -5.988281 2.109375 -5.785156 2.203125 -5.578125 C 2.304688 -5.367188 2.4375 -5.148438 2.59375 -4.921875 L 3.015625 -5.28125 C 3.234375 -5.457031 3.382812 -5.628906 3.46875 -5.796875 C 3.550781 -5.960938 3.59375 -6.164062 3.59375 -6.40625 C 3.59375 -6.644531 3.519531 -6.847656 3.375 -7.015625 C 3.226562 -7.179688 3.039062 -7.265625 2.8125 -7.265625 C 2.570312 -7.265625 2.382812 -7.160156 2.25 -6.953125 C 2.125 -6.753906 2.0625 -6.5 2.0625 -6.1875 Z M 2.0625 -6.1875 "/></g></g></g><g fill="#303030" fill-opacity="1"><g transform="translate(185.703624, 296.019737)"><g/></g></g><g fill="#303030" fill-opacity="1"><g transform="translate(189.698619, 296.019737)"><g><path d="M 4.34375 -2.015625 C 4.34375 -2.410156 4.234375 -2.710938 4.015625 -2.921875 C 3.804688 -3.140625 3.421875 -3.347656 2.859375 -3.546875 C 2.296875 -3.753906 1.863281 -3.96875 1.5625 -4.1875 C 1.269531 -4.40625 1.046875 -4.65625 0.890625 -4.9375 C 0.742188 -5.226562 0.671875 -5.554688 0.671875 -5.921875 C 0.671875 -6.554688 0.878906 -7.078125 1.296875 -7.484375 C 1.722656 -7.890625 2.28125 -8.09375 2.96875 -8.09375 C 3.4375 -8.09375 3.851562 -7.988281 4.21875 -7.78125 C 4.582031 -7.570312 4.863281 -7.28125 5.0625 -6.90625 C 5.257812 -6.53125 5.359375 -6.117188 5.359375 -5.671875 L 4.34375 -5.671875 C 4.34375 -6.171875 4.222656 -6.554688 3.984375 -6.828125 C 3.753906 -7.097656 3.414062 -7.234375 2.96875 -7.234375 C 2.5625 -7.234375 2.242188 -7.117188 2.015625 -6.890625 C 1.796875 -6.660156 1.6875 -6.34375 1.6875 -5.9375 C 1.6875 -5.601562 1.804688 -5.320312 2.046875 -5.09375 C 2.285156 -4.863281 2.660156 -4.660156 3.171875 -4.484375 C 3.953125 -4.222656 4.507812 -3.898438 4.84375 -3.515625 C 5.1875 -3.140625 5.359375 -2.644531 5.359375 -2.03125 C 5.359375 -1.382812 5.148438 -0.863281 4.734375 -0.46875 C 4.316406 -0.0820312 3.742188 0.109375 3.015625 0.109375 C 2.554688 0.109375 2.128906 0.0078125 1.734375 -0.1875 C 1.335938 -0.394531 1.023438 -0.679688 0.796875 -1.046875 C 0.578125 -1.421875 0.46875 -1.84375 0.46875 -2.3125 L 1.46875 -2.3125 C 1.46875 -1.820312 1.601562 -1.4375 1.875 -1.15625 C 2.15625 -0.882812 2.535156 -0.75 3.015625 -0.75 C 3.460938 -0.75 3.796875 -0.863281 4.015625 -1.09375 C 4.234375 -1.320312 4.34375 -1.628906 4.34375 -2.015625 Z M 4.34375 -2.015625 "/></g></g></g><g fill="#303030" fill-opacity="1"><g transform="translate(196.930957, 296.019737)"><g><path d="M 4.6875 -3.6875 L 1.859375 -3.6875 L 1.859375 -0.859375 L 5.15625 -0.859375 L 5.15625 0 L 0.859375 0 L 0.859375 -7.984375 L 5.09375 -7.984375 L 5.09375 -7.125 L 1.859375 -7.125 L 1.859375 -4.546875 L 4.6875 -4.546875 Z M 4.6875 -3.6875 "/></g></g></g><g fill="#303030" fill-opacity="1"><g transform="translate(203.9221, 296.019737)"><g><path d="M 3.28125 -3.234375 L 1.875 -3.234375 L 1.875 0 L 0.859375 0 L 0.859375 -7.984375 L 3.09375 -7.984375 C 3.875 -7.984375 4.46875 -7.78125 4.875 -7.375 C 5.28125 -6.96875 5.484375 -6.367188 5.484375 -5.578125 C 5.484375 -5.085938 5.375 -4.65625 5.15625 -4.28125 C 4.9375 -3.914062 4.628906 -3.644531 4.234375 -3.46875 L 5.78125 -0.0625 L 5.78125 0 L 4.703125 0 Z M 1.875 -4.09375 L 3.09375 -4.09375 C 3.507812 -4.09375 3.84375 -4.226562 4.09375 -4.5 C 4.34375 -4.769531 4.46875 -5.128906 4.46875 -5.578125 C 4.46875 -6.609375 4.003906 -7.125 3.078125 -7.125 L 1.875 -7.125 Z M 1.875 -4.09375 "/></g></g></g><g fill="#303030" fill-opacity="1"><g transform="translate(211.296962, 296.019737)"><g><path d="M 3.140625 -1.546875 L 4.96875 -7.984375 L 6.078125 -7.984375 L 3.59375 0 L 2.703125 0 L 0.234375 -7.984375 L 1.328125 -7.984375 Z M 3.140625 -1.546875 "/></g></g></g><g fill="#303030" fill-opacity="1"><g transform="translate(219.000728, 296.019737)"><g><path d="M 1.90625 0 L 0.90625 0 L 0.90625 -7.984375 L 1.90625 -7.984375 Z M 1.90625 0 "/></g></g></g><g fill="#303030" fill-opacity="1"><g transform="translate(223.223604, 296.019737)"><g><path d="M 5.875 -2.53125 C 5.820312 -1.675781 5.578125 -1.019531 5.140625 -0.5625 C 4.710938 -0.113281 4.097656 0.109375 3.296875 0.109375 C 2.492188 0.109375 1.859375 -0.191406 1.390625 -0.796875 C 0.921875 -1.410156 0.6875 -2.238281 0.6875 -3.28125 L 0.6875 -4.734375 C 0.6875 -5.765625 0.925781 -6.582031 1.40625 -7.1875 C 1.894531 -7.789062 2.554688 -8.09375 3.390625 -8.09375 C 4.160156 -8.09375 4.753906 -7.859375 5.171875 -7.390625 C 5.597656 -6.929688 5.832031 -6.273438 5.875 -5.421875 L 4.859375 -5.421875 C 4.804688 -6.066406 4.664062 -6.53125 4.4375 -6.8125 C 4.207031 -7.09375 3.859375 -7.234375 3.390625 -7.234375 C 2.847656 -7.234375 2.425781 -7.019531 2.125 -6.59375 C 1.832031 -6.164062 1.6875 -5.539062 1.6875 -4.71875 L 1.6875 -3.25 C 1.6875 -2.445312 1.820312 -1.828125 2.09375 -1.390625 C 2.375 -0.960938 2.773438 -0.75 3.296875 -0.75 C 3.816406 -0.75 4.191406 -0.878906 4.421875 -1.140625 C 4.648438 -1.398438 4.796875 -1.863281 4.859375 -2.53125 Z M 5.875 -2.53125 "/></g></g></g><g fill="#303030" fill-opacity="1"><g transform="translate(231.004115, 296.019737)"><g><path d="M 4.6875 -3.6875 L 1.859375 -3.6875 L 1.859375 -0.859375 L 5.15625 -0.859375 L 5.15625 0 L 0.859375 0 L 0.859375 -7.984375 L 5.09375 -7.984375 L 5.09375 -7.125 L 1.859375 -7.125 L 1.859375 -4.546875 L 4.6875 -4.546875 Z M 4.6875 -3.6875 "/></g></g></g><g fill="#303030" fill-opacity="1"><g transform="translate(237.995259, 296.019737)"><g><path d="M 4.34375 -2.015625 C 4.34375 -2.410156 4.234375 -2.710938 4.015625 -2.921875 C 3.804688 -3.140625 3.421875 -3.347656 2.859375 -3.546875 C 2.296875 -3.753906 1.863281 -3.96875 1.5625 -4.1875 C 1.269531 -4.40625 1.046875 -4.65625 0.890625 -4.9375 C 0.742188 -5.226562 0.671875 -5.554688 0.671875 -5.921875 C 0.671875 -6.554688 0.878906 -7.078125 1.296875 -7.484375 C 1.722656 -7.890625 2.28125 -8.09375 2.96875 -8.09375 C 3.4375 -8.09375 3.851562 -7.988281 4.21875 -7.78125 C 4.582031 -7.570312 4.863281 -7.28125 5.0625 -6.90625 C 5.257812 -6.53125 5.359375 -6.117188 5.359375 -5.671875 L 4.34375 -5.671875 C 4.34375 -6.171875 4.222656 -6.554688 3.984375 -6.828125 C 3.753906 -7.097656 3.414062 -7.234375 2.96875 -7.234375 C 2.5625 -7.234375 2.242188 -7.117188 2.015625 -6.890625 C 1.796875 -6.660156 1.6875 -6.34375 1.6875 -5.9375 C 1.6875 -5.601562 1.804688 -5.320312 2.046875 -5.09375 C 2.285156 -4.863281 2.660156 -4.660156 3.171875 -4.484375 C 3.953125 -4.222656 4.507812 -3.898438 4.84375 -3.515625 C 5.1875 -3.140625 5.359375 -2.644531 5.359375 -2.03125 C 5.359375 -1.382812 5.148438 -0.863281 4.734375 -0.46875 C 4.316406 -0.0820312 3.742188 0.109375 3.015625 0.109375 C 2.554688 0.109375 2.128906 0.0078125 1.734375 -0.1875 C 1.335938 -0.394531 1.023438 -0.679688 0.796875 -1.046875 C 0.578125 -1.421875 0.46875 -1.84375 0.46875 -2.3125 L 1.46875 -2.3125 C 1.46875 -1.820312 1.601562 -1.4375 1.875 -1.15625 C 2.15625 -0.882812 2.535156 -0.75 3.015625 -0.75 C 3.460938 -0.75 3.796875 -0.863281 4.015625 -1.09375 C 4.234375 -1.320312 4.34375 -1.628906 4.34375 -2.015625 Z M 4.34375 -2.015625 "/></g></g></g></svg>